<svg width="24" height="24" viewBox="0 0 29 24" fill="none" xmlns="http://www.w3.org/2000/svg">
    <path d="M6.74976 8H3.74995C3.33598 8 3 8.33448 3 8.74995C3 9.16393 3.33598 9.49991 3.74995 9.49991H4.49991C4.49991 13.6411 7.85669 16.9994 11.9994 16.9994C16.1407 16.9994 19.499 13.6411 19.499 9.49991H20.2489C20.6614 9.49991 20.9989 9.16393 20.9989 8.74995C20.9989 8.33598 20.6614 8 20.2489 8H17.2491C16.8351 8 16.4992 8.33598 16.4992 8.74995C16.4992 9.16393 16.8351 9.49991 17.2491 9.49991H17.9991C17.9991 12.8117 15.3127 15.4995 11.9994 15.4995C8.68614 15.4995 5.99981 12.8117 5.99981 9.49991H6.74976C7.16224 9.49991 7.49972 9.16393 7.49972 8.74995C7.49972 8.33598 7.16224 8 6.74976 8Z" fill="#002140"/>
    <path d="M22.4142 3.41421L22.8385 2.98995L22.4142 3.41421ZM20.5858 1.58579L20.1615 2.01005L20.5858 1.58579ZM4.82843 1.6H19.1716V0.4H4.82843V1.6ZM2.01005 3.83848L3.83848 2.01005L2.98995 1.16152L1.16152 2.98995L2.01005 3.83848ZM1.6 19V4.82843H0.4V19H1.6ZM21 20.4H3V21.6H21V20.4ZM22.4 4.82843V19H23.6V4.82843H22.4ZM20.1615 2.01005L21.99 3.83848L22.8385 2.98995L21.01 1.16152L20.1615 2.01005ZM23.6 4.82843C23.6 4.13886 23.3261 3.47754 22.8385 2.98995L21.99 3.83848C22.2525 4.10103 22.4 4.45712 22.4 4.82843H23.6ZM21 21.6C22.4359 21.6 23.6 20.4359 23.6 19H22.4C22.4 19.7732 21.7732 20.4 21 20.4V21.6ZM0.4 19C0.4 20.4359 1.56406 21.6 3 21.6V20.4C2.2268 20.4 1.6 19.7732 1.6 19H0.4ZM1.16152 2.98995C0.673928 3.47754 0.4 4.13886 0.4 4.82843H1.6C1.6 4.45712 1.7475 4.10103 2.01005 3.83848L1.16152 2.98995ZM19.1716 1.6C19.5429 1.6 19.899 1.7475 20.1615 2.01005L21.01 1.16152C20.5225 0.673928 19.8611 0.4 19.1716 0.4V1.6ZM4.82843 0.4C4.13886 0.4 3.47754 0.673928 2.98995 1.16152L3.83848 2.01005C4.10103 1.7475 4.45712 1.6 4.82843 1.6V0.4Z" fill="#002140"/>
</svg>
