<svg width="24" height="24" viewBox="0 0 29 24" fill="none" xmlns="http://www.w3.org/2000/svg">
    <path d="M6.74976 10H3.74995C3.33598 10 3 10.3345 3 10.75C3 11.1639 3.33598 11.4999 3.74995 11.4999H4.49991C4.49991 15.6411 7.85669 18.9994 11.9994 18.9994C16.1407 18.9994 19.499 15.6411 19.499 11.4999H20.2489C20.6614 11.4999 20.9989 11.1639 20.9989 10.75C20.9989 10.336 20.6614 10 20.2489 10H17.2491C16.8351 10 16.4992 10.336 16.4992 10.75C16.4992 11.1639 16.8351 11.4999 17.2491 11.4999H17.9991C17.9991 14.8117 15.3127 17.4995 11.9994 17.4995C8.68614 17.4995 5.99981 14.8117 5.99981 11.4999H6.74976C7.16224 11.4999 7.49972 11.1639 7.49972 10.75C7.49972 10.336 7.16224 10 6.74976 10Z" fill="#002140"/>
    <path d="M22.4142 5.41421L22.8385 4.98995L22.4142 5.41421ZM20.5858 3.58579L20.1615 4.01005L20.5858 3.58579ZM4.82843 3.6H19.1716V2.4H4.82843V3.6ZM2.01005 5.83848L3.83848 4.01005L2.98995 3.16152L1.16152 4.98995L2.01005 5.83848ZM1.6 21V6.82843H0.4V21H1.6ZM21 22.4H3V23.6H21V22.4ZM22.4 6.82843V21H23.6V6.82843H22.4ZM20.1615 4.01005L21.99 5.83848L22.8385 4.98995L21.01 3.16152L20.1615 4.01005ZM23.6 6.82843C23.6 6.13886 23.3261 5.47754 22.8385 4.98995L21.99 5.83848C22.2525 6.10103 22.4 6.45712 22.4 6.82843H23.6ZM21 23.6C22.4359 23.6 23.6 22.4359 23.6 21H22.4C22.4 21.7732 21.7732 22.4 21 22.4V23.6ZM0.4 21C0.4 22.4359 1.56406 23.6 3 23.6V22.4C2.2268 22.4 1.6 21.7732 1.6 21H0.4ZM1.16152 4.98995C0.673928 5.47754 0.4 6.13886 0.4 6.82843H1.6C1.6 6.45712 1.7475 6.10103 2.01005 5.83848L1.16152 4.98995ZM19.1716 3.6C19.5429 3.6 19.899 3.7475 20.1615 4.01005L21.01 3.16152C20.5225 2.67393 19.8611 2.4 19.1716 2.4V3.6ZM4.82843 2.4C4.13886 2.4 3.47754 2.67393 2.98995 3.16152L3.83848 4.01005C4.10103 3.7475 4.45712 3.6 4.82843 3.6V2.4Z" fill="#002140"/>
    <circle cx="24" cy="5" r="5" fill="#0D986A"/>
</svg>
