<?xml version="1.0" encoding="iso-8859-1"?>
<!-- Generator: Adobe Illustrator 18.0.0, SVG Export Plug-In . SVG Version: 6.00 Build 0)  -->
<!DOCTYPE svg PUBLIC "-//W3C//DTD SVG 1.1//EN" "http://www.w3.org/Graphics/SVG/1.1/DTD/svg11.dtd">
<svg version="1.1" id="Capa_1" xmlns="http://www.w3.org/2000/svg" xmlns:xlink="http://www.w3.org/1999/xlink" x="0px" y="0px"
	 viewBox="0 0 459.5 459.5" style="enable-background:new 0 0 459.5 459.5;" xml:space="preserve">
<g>
	<path d="M57.209,114.262c-2.694,24.018,0.306,58.49,51.104,72.307c62.557,17.017,128.982-17.122,157.053-34.333
		c2.049-1.256,3.083-3.667,2.583-6.017c-0.5-2.35-2.427-4.134-4.809-4.445c-16.989-2.223-42.893-8.021-54.135-23.057
		c-47.583-63.629-76.913-58.553-94.328-58.553c-19.788,0-35.817,9.242-45.927,23.184c-9.904-10.608-19.772-23.753-29.096-40.065
		c-4.11-7.192-13.272-9.689-20.467-5.579c-7.192,4.11-9.69,13.273-5.579,20.466C27.347,82.204,42.284,100.431,57.209,114.262z"/>
	<path d="M456.739,396.453l-92.748-145.746c-18.484-23.987-48.681-37.119-79.083-33.809l-101.367,11.027
		c-14.622,1.591-25.186,14.733-23.595,29.355c1.59,14.621,14.732,25.184,29.355,23.596l96.907-10.542
		c-176.643,34.389-159.795,31.386-165.694,31.612L44.285,234.46c-11.013-9.749-27.843-8.726-37.593,2.287
		s-8.726,27.844,2.287,37.594l84.228,74.568c5.134,4.545,11.825,6.945,18.677,6.671l179.071-6.887l42.769,63.354
		c4.548,6.736,11.639,10.726,19.13,11.561l0.102,0.168c15.533,0,77.53,0,88.743,0c6.49,0,12.465-3.532,15.595-9.217
		C460.424,408.874,460.211,401.936,456.739,396.453z"/>
</g>
<g>
</g>
<g>
</g>
<g>
</g>
<g>
</g>
<g>
</g>
<g>
</g>
<g>
</g>
<g>
</g>
<g>
</g>
<g>
</g>
<g>
</g>
<g>
</g>
<g>
</g>
<g>
</g>
<g>
</g>
</svg>
