<?xml version="1.0" encoding="iso-8859-1"?>
<!-- Generator: Adobe Illustrator 18.1.1, SVG Export Plug-In . SVG Version: 6.00 Build 0)  -->
<svg version="1.1" id="Capa_1" xmlns="http://www.w3.org/2000/svg" xmlns:xlink="http://www.w3.org/1999/xlink" x="0px" y="0px"
	 viewBox="0 0 285 285" style="enable-background:new 0 0 285 285;" xml:space="preserve">
<g>
	<g>
		<path d="M146.733,57.92c-2.437-2.104-6.03-2.104-8.467,0l-97.619,84.2c-1.426,1.231-2.245,3.024-2.245,4.911v121.768
			c0,3.588,2.9,6.482,6.479,6.482h195.238c3.578,0,6.479-2.895,6.479-6.482V147.031c0-1.887-0.822-3.68-2.245-4.911L146.733,57.92z
			 M233.641,262.33H129.635c15.589-27.232,25.114-89.149,25.442-120.327c11.708,21.641,10.335,63.296-4.543,92.378
			c-0.612,1.212-0.417,2.665,0.507,3.667c0.918,0.996,2.362,1.306,3.615,0.805c10.199-4.2,29.193-12.012,37.558-38.019
			c11.822-36.77-10.65-78.944-50.092-94.011c-0.822-0.328-1.75-0.278-2.548,0.099c-0.801,0.378-1.41,1.07-1.686,1.911
			c-5.304,16.155-15.722,27.739-25.794,38.953c-11.73,13.056-22.813,25.383-22.408,42.564c0.476,20.181,16.053,40.301,31.159,51.198
			c0.848,0.934,2.889,7.372-1.113,20.781H51.359V149.994L142.5,71.371l91.141,78.623L233.641,262.33L233.641,262.33z"/>
		<path d="M280.491,124.252L150.945,12.85c-4.855-4.174-12.036-4.174-16.891,0L4.509,124.252c-5.424,4.664-6.042,12.84-1.376,18.265
			c4.669,5.424,12.849,6.042,18.27,1.379L142.5,39.754l121.1,104.142c2.449,2.097,5.449,3.136,8.436,3.136
			c3.649,0,7.273-1.534,9.834-4.515C286.534,137.092,285.915,128.916,280.491,124.252z"/>
	</g>
</g>
<g>
</g>
<g>
</g>
<g>
</g>
<g>
</g>
<g>
</g>
<g>
</g>
<g>
</g>
<g>
</g>
<g>
</g>
<g>
</g>
<g>
</g>
<g>
</g>
<g>
</g>
<g>
</g>
<g>
</g>
</svg>
