<svg width="14" height="14" viewBox="0 0 14 14" fill="none" xmlns="http://www.w3.org/2000/svg">
<ellipse cx="2.2003" cy="8.91603" rx="2.2353" ry="1.43596" transform="rotate(13.3605 2.2003 8.91603)" fill="#0D986A"/>
<ellipse cx="3.02408" cy="4.71859" rx="2.47332" ry="1.87035" transform="rotate(39.1947 3.02408 4.71859)" fill="#0D986A"/>
<ellipse cx="6.68884" cy="2.4174" rx="2.47332" ry="1.87035" transform="rotate(71.0457 6.68884 2.4174)" fill="#0D986A"/>
<ellipse cx="10.9009" cy="2.74834" rx="2.00683" ry="1.50668" transform="rotate(85.1851 10.9009 2.74834)" fill="#0D986A"/>
<path d="M13.8957 9.5294C13.8957 11.0941 11.4741 11.1127 10.2634 10.9265C9.42512 13.4412 8.72659 14 7.60894 14C6.49129 14 4.95452 12.0441 4.95452 9.80881C4.95452 7.57352 6.7707 5.61763 9.28541 5.61763C11.8001 5.61763 13.8957 7.57352 13.8957 9.5294Z" fill="#0D986A"/>
</svg>
