<svg width="100" height="100" viewBox="0 0 100 100" fill="none" xmlns="http://www.w3.org/2000/svg">
<path fill-rule="evenodd" clip-rule="evenodd" d="M96 3H83.3333V0H96C98.2091 0 100 1.79086 100 4L100 16.6667H97V4C97 3.44772 96.5523 3 96 3ZM3 16.6667H1.52588e-05L1.23447e-05 83.3333H3V96C3 96.5523 3.44772 97 4 97H16.6667V100H4C1.79086 100 2.38419e-06 98.2091 2.38419e-06 96V4C2.38419e-06 1.79086 1.79086 0 4 0H16.6667V3H4C3.44772 3 3 3.44772 3 4V16.6667ZM97 83.3333H100L100 96C100 98.2091 98.2091 100 96 100H83.3333V97H96C96.5523 97 97 96.5523 97 96V83.3333Z" fill="white"/>
</svg>
