<svg width="13" height="12" viewBox="0 0 13 12" fill="none" xmlns="http://www.w3.org/2000/svg">
<path d="M5.79063 0.357736C5.94447 -0.11929 6.61938 -0.11929 6.77323 0.357736L7.8958 3.83852C7.9647 4.05216 8.16375 4.19678 8.38822 4.19629L12.0455 4.1883C12.5468 4.1872 12.7553 4.82908 12.3492 5.1228L9.38565 7.26605C9.20376 7.3976 9.12773 7.6316 9.19756 7.84494L10.3353 11.3208C10.4913 11.7971 9.94525 12.1938 9.5404 11.8983L6.58626 9.74215C6.40495 9.60982 6.1589 9.60982 5.97759 9.74215L3.02346 11.8983C2.61861 12.1938 2.07259 11.7971 2.22852 11.3208L3.3663 7.84494C3.43613 7.6316 3.36009 7.3976 3.17821 7.26605L0.214674 5.1228C-0.191465 4.82908 0.0170933 4.1872 0.518313 4.1883L4.17563 4.19629C4.4001 4.19678 4.59916 4.05216 4.66806 3.83852L5.79063 0.357736Z" fill="#0D986A"/>
</svg>
