<svg width="81" height="81" viewBox="0 0 81 81" fill="none" xmlns="http://www.w3.org/2000/svg">
<g filter="url(#filter0_d_1_275)">
<path d="M16.2729 21.1598C17.5655 16.3124 21.3384 12.5181 26.1784 11.1981L27.7901 10.7586C36.1108 8.48927 44.8874 8.48927 53.2082 10.7586L54.8198 11.1981C59.6599 12.5181 63.4327 16.3124 64.7254 21.1598L65.2793 23.2371C67.5026 31.5744 67.452 40.3551 65.1326 48.6662L64.7866 49.9058C63.4537 54.6821 59.7079 58.4059 54.9239 59.7106L53.2082 60.1785C44.8874 62.4478 36.1108 62.4478 27.7901 60.1785L26.0744 59.7106C21.2904 58.4059 17.5446 54.6821 16.2116 49.9058L15.8657 48.6662C13.5463 40.3551 13.4956 31.5744 15.7189 23.2371L16.2729 21.1598Z" fill="#0D986A"/>
</g>
<circle opacity="0.6" cx="29.9331" cy="32.827" r="3.52201" fill="#F1F2EF"/>
<circle opacity="0.6" cx="51.7034" cy="32.827" r="3.52201" fill="#F1F2EF"/>
<path d="M29.9331 34.5881C31.7675 49.8501 50.1113 49.8501 51.9457 34.5881" stroke="#F1F2EF" stroke-width="1.5"/>
<defs>
<filter id="filter0_d_1_275" x="0" y="0" width="80.9983" height="81" filterUnits="userSpaceOnUse" color-interpolation-filters="sRGB">
<feFlood flood-opacity="0" result="BackgroundImageFix"/>
<feColorMatrix in="SourceAlpha" type="matrix" values="0 0 0 0 0 0 0 0 0 0 0 0 0 0 0 0 0 0 127 0" result="hardAlpha"/>
<feOffset dy="5"/>
<feGaussianBlur stdDeviation="7"/>
<feColorMatrix type="matrix" values="0 0 0 0 0.12549 0 0 0 0 0.223529 0 0 0 0 0.00392157 0 0 0 0.28 0"/>
<feBlend mode="multiply" in2="BackgroundImageFix" result="effect1_dropShadow_1_275"/>
<feBlend mode="normal" in="SourceGraphic" in2="effect1_dropShadow_1_275" result="shape"/>
</filter>
</defs>
</svg>
