<svg width="375" height="353" viewBox="0 0 375 353" fill="none" xmlns="http://www.w3.org/2000/svg">
<mask id="mask0_1_263" style="mask-type:alpha" maskUnits="userSpaceOnUse" x="0" y="-41" width="375" height="395">
<path d="M0 -40.0371H375V206.53C375 229.536 360.424 250.016 338.687 257.551L71.6873 350.111C36.6055 362.273 0 336.22 0 299.09V-40.0371Z" fill="#FEC6BC"/>
</mask>
<g mask="url(#mask0_1_263)">
<g style="mix-blend-mode:screen" opacity="0.28">
<path fill-rule="evenodd" clip-rule="evenodd" d="M325.138 233.561C323.773 235.611 322.477 237.559 321.262 239.397C315.182 248.593 310.28 258.975 305.3 269.524L304.989 270.183C299.887 280.987 294.667 291.964 287.946 302.214C274.554 322.638 255.191 340.2 218.932 347.208C173.162 356.053 112.479 351.467 65.7074 334.977C42.3199 326.732 22.5299 315.552 9.80928 301.698C-2.86751 287.893 -8.51832 271.454 -3.76704 252.466C2.89364 225.846 9.30105 206.385 21.8333 188.572C34.3682 170.755 53.1032 154.488 84.5963 134.436C96.9475 126.572 106.896 116.597 116.224 105.856C120.319 101.14 124.306 96.2632 128.322 91.351C128.878 90.6714 129.434 89.9912 129.991 89.3107C134.579 83.704 139.236 78.0671 144.193 72.5439C163.983 50.4959 188.564 30.2602 232.211 21.8248C248.985 18.583 264.291 14.8358 278.163 11.4399C283.337 10.1732 288.311 8.95541 293.088 7.83093C310.724 3.679 325.621 0.810565 338.128 1.31422C350.563 1.81497 360.55 5.64453 368.49 14.8626C376.49 24.1493 382.523 39.0305 386.686 61.8834C392.639 94.566 382.228 130.018 367.285 161.849C353.899 190.364 336.958 215.808 325.138 233.561ZM326.184 234.258C351.183 196.713 399.347 124.374 387.923 61.6582C374.254 -13.379 340.151 -5.03006 277.837 10.2254C263.974 13.6194 248.714 17.3552 231.973 20.5907C175.647 31.4764 150.768 61.9088 127.35 90.5544C114.187 106.655 101.486 122.192 83.9212 133.376C20.8195 173.554 8.34963 198.863 -4.98641 252.161C-24.4664 330.013 127.177 366.221 219.17 348.442C274.476 337.754 291.044 302.661 306.418 270.1C311.412 259.521 316.281 249.21 322.31 240.09C323.523 238.255 324.819 236.308 326.184 234.258Z" fill="#FFF1C2"/>
<path fill-rule="evenodd" clip-rule="evenodd" d="M321.066 234.515C319.882 236.288 318.758 237.973 317.704 239.564C312.425 247.53 308.169 256.52 303.851 265.641L303.579 266.215C299.154 275.563 294.631 285.047 288.811 293.902C277.22 311.538 260.47 326.704 229.095 332.767C189.457 340.428 136.9 336.485 96.3997 322.251C76.1478 315.133 59.03 305.483 48.0372 293.535C37.0884 281.635 32.2209 267.479 36.3285 251.12C42.1086 228.1 47.6618 211.292 58.5095 195.91C69.3599 180.523 85.5802 166.462 112.872 149.114C123.598 142.295 132.234 133.652 140.326 124.354C143.88 120.272 147.338 116.05 150.82 111.8C151.302 111.212 151.783 110.625 152.265 110.037C156.244 105.186 160.279 100.312 164.574 95.5369C181.715 76.4805 202.994 58.9962 240.776 51.6942C255.319 48.8837 268.59 45.6361 280.614 42.694C285.097 41.5969 289.407 40.5424 293.544 39.5688C308.83 35.9715 321.721 33.491 332.534 33.9211C343.276 34.3484 351.881 37.6433 358.721 45.5691C365.621 53.5634 370.837 66.3949 374.435 86.1464C379.574 114.356 370.557 144.98 357.602 172.503C345.998 197.156 331.315 219.157 321.066 234.515ZM322.111 235.214C343.787 202.734 385.551 140.156 375.672 85.9211C363.851 21.0313 334.295 28.2639 280.288 41.4795C268.273 44.4197 255.147 47.7 240.638 50.5041C191.822 59.9384 170.151 86.2222 149.847 111.004C138.435 124.934 127.423 138.375 112.197 148.053C57.4994 182.823 46.6843 204.715 35.1093 250.814C18.2017 318.15 149.605 349.41 229.333 334.001C277.265 324.738 291.636 294.383 304.969 266.217C309.301 257.067 313.523 248.148 318.752 240.258C319.804 238.67 320.927 236.987 322.111 235.214Z" fill="#FFF1C2"/>
</g>
<g style="mix-blend-mode:screen" opacity="0.28">
<path fill-rule="evenodd" clip-rule="evenodd" d="M294.338 227.258C293.431 228.705 292.569 230.08 291.762 231.377C287.723 237.869 284.48 245.206 281.184 252.662L280.979 253.127C277.603 260.763 274.149 268.52 269.684 275.756C260.787 290.174 247.872 302.536 223.57 307.342C192.893 313.409 152.15 309.888 120.688 297.991C104.957 292.043 91.6261 284.03 83.0278 274.153C74.4592 264.311 70.5939 252.634 73.6979 239.195C78.0494 220.356 82.2628 206.589 90.5938 194.019C98.9265 181.446 111.427 169.999 132.472 155.925C140.726 150.405 147.358 143.379 153.57 135.807C156.298 132.482 158.951 129.043 161.624 125.579C161.994 125.1 162.364 124.62 162.735 124.141C165.79 120.187 168.889 116.212 172.192 112.319C185.374 96.7785 201.78 82.5442 231.034 76.759C242.276 74.5357 252.531 71.9477 261.825 69.6022C265.292 68.7274 268.625 67.8863 271.825 67.1105C283.642 64.2459 293.627 62.279 302.022 62.6916C310.369 63.1019 317.088 65.8608 322.458 72.4302C327.868 79.0485 331.983 89.6236 334.878 105.841C339.019 129.034 332.189 154.118 322.303 176.614C313.447 196.766 302.191 214.727 294.338 227.258ZM295.043 227.757C311.652 201.254 343.653 150.193 335.707 105.687C326.2 52.4373 303.351 58.2036 261.601 68.74C252.313 71.084 242.089 73.6642 230.868 75.8832C193.117 83.3488 176.557 104.81 160.968 125.01C152.207 136.365 143.752 147.321 132.015 155.17C89.8466 183.369 81.5908 201.254 72.8783 238.974C60.1518 294.071 162.079 320.411 223.735 308.218C260.802 300.888 271.765 276.086 281.937 253.075C285.242 245.598 288.463 238.311 292.469 231.873C293.275 230.578 294.136 229.204 295.043 227.757Z" fill="#FFF1C2"/>
<path fill-rule="evenodd" clip-rule="evenodd" d="M291.609 227.916C290.823 229.168 290.076 230.357 289.375 231.48C285.868 237.103 283.052 243.456 280.195 249.902L280.015 250.309C277.087 256.915 274.094 263.617 270.227 269.868C262.527 282.318 251.355 292.993 230.326 297.151C203.759 302.405 168.472 299.377 141.229 289.107C127.606 283.971 116.076 277.055 108.646 268.537C101.245 260.053 97.9157 249.997 100.599 238.42C104.376 222.128 108.028 210.239 115.239 199.383C122.452 188.525 133.275 178.63 151.513 166.455C158.681 161.669 164.438 155.581 169.827 149.027C172.194 146.148 174.496 143.171 176.814 140.174C177.134 139.76 177.455 139.346 177.776 138.931C180.424 135.51 183.11 132.074 185.971 128.708C197.389 115.276 211.592 102.977 236.915 97.9695C246.661 96.0421 255.553 93.7991 263.609 91.7671C266.613 91.0094 269.5 90.2811 272.272 89.6094C282.515 87.1275 291.155 85.4266 298.413 85.7796C305.624 86.1302 311.413 88.504 316.039 94.1525C320.704 99.8498 324.262 108.968 326.765 122.985C330.339 143.004 324.424 164.671 315.852 184.122C308.174 201.546 298.419 217.075 291.609 227.916ZM292.314 228.416C306.716 205.49 334.465 161.318 327.594 122.831C319.372 76.7822 299.57 81.7774 263.385 90.9048C255.335 92.9354 246.541 95.2022 236.817 97.1253C204.099 103.596 189.673 122.13 176.157 139.606C168.56 149.429 161.23 158.907 151.056 165.7C114.503 190.103 107.343 205.573 99.78 238.197C88.7331 285.852 177.055 308.595 230.491 298.027C262.616 291.674 272.125 270.221 280.948 250.316C283.814 243.849 286.608 237.546 290.082 231.977C290.781 230.856 291.527 229.668 292.314 228.416Z" fill="#FFF1C2"/>
</g>
</g>
</svg>
