<svg width="155" height="114" viewBox="0 0 155 114" fill="none" xmlns="http://www.w3.org/2000/svg">
<mask id="mask0_1_349" style="mask-type:alpha" maskUnits="userSpaceOnUse" x="-1" y="0" width="156" height="114">
<path opacity="0.8" d="M-0.102295 24C-0.102295 10.7452 10.6429 0 23.8977 0H130.898C144.153 0 154.898 10.7452 154.898 24V90C154.898 103.255 144.153 114 130.898 114H23.8977C10.6429 114 -0.102295 103.255 -0.102295 90V24Z" fill="#9CE5CB"/>
</mask>
<g mask="url(#mask0_1_349)">
<g style="mix-blend-mode:screen" opacity="0.7">
<path fill-rule="evenodd" clip-rule="evenodd" d="M241.65 156.388C240.091 157.39 238.609 158.343 237.216 159.244C230.25 163.754 223.738 169.437 217.121 175.212L216.708 175.572C209.931 181.486 203.02 187.484 195.294 192.527C179.897 202.577 161.245 208.852 134.122 202.751C99.8836 195.051 59.4095 173.588 32.1202 148.11C18.4746 135.37 8.19539 121.691 3.5986 108.299C-0.982349 94.9536 0.0768902 81.911 9.08022 70.2459C21.7017 53.8931 31.9901 42.4011 46.006 33.8934C60.0248 25.384 77.8529 19.8132 105.623 15.4784C116.514 13.7784 126.384 9.89826 136.057 5.30221C140.304 3.28423 144.525 1.12265 148.776 -1.05469C149.364 -1.3559 149.953 -1.65739 150.542 -1.95886C155.398 -4.44246 160.31 -6.92647 165.395 -9.2413C185.693 -18.4818 208.751 -25.0273 241.401 -17.6838C253.949 -14.8616 265.637 -12.8308 276.229 -10.9902C280.18 -10.3037 283.978 -9.64373 287.612 -8.97901C301.029 -6.52469 312.17 -4.0109 320.645 0.108047C329.071 4.20324 334.805 9.85627 337.502 18.609C340.219 27.427 339.894 39.5109 335.874 56.5296C330.125 80.8683 312.252 102.183 292.347 119.632C274.515 135.264 255.156 147.707 241.65 156.388ZM242.161 157.184C270.727 138.825 325.763 103.452 336.795 56.7471C349.994 0.866811 323.953 -3.65808 276.37 -11.9262C265.784 -13.7656 254.132 -15.7903 241.609 -18.607C199.474 -28.0836 173.137 -14.5945 148.345 -1.89734C134.411 5.23938 120.965 12.1259 105.477 14.5435C49.8354 23.2289 33.602 36.9261 8.33115 69.6678C-28.5819 117.493 65.0987 188.197 133.914 203.675C175.285 212.979 197.296 193.77 217.719 175.946C224.354 170.155 230.821 164.511 237.731 160.038C239.121 159.138 240.602 158.187 242.161 157.184Z" fill="#FFF1C2"/>
<path fill-rule="evenodd" clip-rule="evenodd" d="M238.554 155.818C237.202 156.684 235.918 157.507 234.712 158.287C228.669 162.189 223.022 167.107 217.294 172.096L216.933 172.411C211.061 177.524 205.082 182.702 198.396 187.055C185.083 195.724 168.957 201.134 145.486 195.855C115.835 189.187 80.772 170.619 57.1285 148.587C45.3058 137.57 36.4085 125.752 32.4288 114.196C28.4651 102.686 29.3765 91.4535 37.1428 81.4085C48.0714 67.2731 56.9702 57.3542 69.0914 50.0147C81.2156 42.6733 96.6439 37.8659 120.7 34.1292C130.155 32.6607 138.718 29.3032 147.104 25.3299C150.786 23.5853 154.445 21.7163 158.128 19.8347C158.637 19.5747 159.147 19.3145 159.657 19.0543C163.863 16.9084 168.116 14.7632 172.519 12.7646C190.089 4.78872 210.039 -0.854744 238.302 5.50205C249.18 7.94871 259.314 9.71071 268.495 11.307C271.918 11.9022 275.209 12.4743 278.356 13.0504C289.985 15.1786 299.624 17.355 306.953 20.9124C314.234 24.4463 319.176 29.3138 321.504 36.8436C323.852 44.4384 323.581 54.8622 320.107 69.5712C315.145 90.5789 299.691 108.984 282.455 124.061C267.016 137.567 250.254 148.315 238.554 155.818ZM239.064 156.615C263.81 140.748 311.488 110.178 321.028 69.7887C332.442 21.4652 309.874 17.5412 268.636 10.371C259.462 8.77585 249.419 7.08057 238.566 4.63942C202.049 -3.5737 179.175 8.02128 157.697 18.9925C145.625 25.1592 133.975 31.1096 120.555 33.1942C72.341 40.6833 58.2793 52.5228 36.3942 80.8297C4.42657 122.177 85.6383 183.365 145.279 196.779C181.134 204.843 200.2 188.238 217.891 172.831C223.638 167.826 229.24 162.947 235.225 159.081C236.43 158.304 237.713 157.481 239.064 156.615Z" fill="#FFF1C2"/>
</g>
<g style="mix-blend-mode:screen" opacity="0.7">
<path fill-rule="evenodd" clip-rule="evenodd" d="M222.306 142.752C221.244 143.477 220.235 144.166 219.287 144.817C214.543 148.077 210.093 152.16 205.572 156.309L205.29 156.567C200.659 160.817 195.937 165.126 190.675 168.77C180.191 176.033 167.554 180.665 149.342 176.652C126.353 171.586 99.3112 156.871 81.1975 139.178C72.1401 130.331 65.3613 120.784 62.4087 111.378C59.4663 102.006 60.3214 92.7855 66.5149 84.452C75.1974 72.7695 82.255 64.5442 91.7922 58.3856C101.331 52.2257 113.406 48.0994 132.166 44.738C139.524 43.4197 146.217 40.5732 152.785 37.2234C155.669 35.7527 158.537 34.1808 161.425 32.5974C161.825 32.3784 162.225 32.1591 162.625 31.9399C165.924 30.1338 169.261 28.3268 172.713 26.6373C186.492 19.8932 202.101 15.022 224.024 19.8531C232.449 21.7098 240.303 23.0171 247.421 24.2018C250.076 24.6437 252.628 25.0686 255.07 25.4985C264.084 27.086 271.565 28.7402 277.231 31.5565C282.865 34.3566 286.668 38.2857 288.391 44.4363C290.126 50.6327 289.776 59.168 286.882 71.2275C282.745 88.4739 270.47 103.716 256.867 116.252C244.681 127.482 231.501 136.477 222.306 142.752ZM222.641 143.309C242.09 130.037 279.561 104.466 287.501 71.3711C297.001 31.7743 279.502 28.8616 247.526 23.5394C240.412 22.3554 232.582 21.0521 224.173 19.1991C195.882 12.9646 177.988 22.7738 161.144 32.0071C151.677 37.1969 142.541 42.2047 132.078 44.0795C94.4883 50.8145 83.4006 60.6611 66.0164 84.0519C40.6234 118.219 102.987 167.124 149.192 177.306C176.971 183.427 192.011 169.626 205.967 156.82C210.501 152.66 214.92 148.605 219.625 145.372C220.571 144.722 221.58 144.034 222.641 143.309Z" fill="#FFF1C2"/>
<path fill-rule="evenodd" clip-rule="evenodd" d="M220.225 142.383C219.305 143.01 218.431 143.605 217.61 144.168C213.495 146.989 209.637 150.522 205.722 154.107L205.475 154.333C201.463 158.006 197.378 161.727 192.826 164.873C183.76 171.138 172.834 175.133 157.075 171.66C137.166 167.273 113.739 154.543 98.0449 139.244C90.1972 131.593 84.3295 123.346 81.7729 115.23C79.2265 107.146 79.9624 99.2056 85.3047 92.0292C92.8224 81.9307 98.9266 74.8311 107.174 69.5178C115.424 64.2031 125.873 60.6417 142.124 57.7429C148.511 56.6036 154.319 54.1403 160.013 51.2442C162.513 49.9725 164.999 48.6133 167.501 47.2449C167.847 47.0558 168.193 46.8666 168.54 46.6774C171.398 45.1167 174.287 43.556 177.276 42.0972C189.202 36.2756 202.707 32.0749 221.684 36.2569C228.988 37.8665 235.798 39.0008 241.967 40.0284C244.268 40.4115 246.479 40.7798 248.594 41.1524C256.407 42.5291 262.879 43.9613 267.78 46.3936C272.647 48.8098 275.925 52.1929 277.412 57.484C278.913 62.8208 278.617 70.1834 276.116 80.6062C272.545 95.4923 261.931 108.654 250.153 119.486C239.603 129.189 228.191 136.959 220.225 142.383ZM220.56 142.941C237.408 131.47 269.868 109.369 276.735 80.7498C284.95 46.5077 269.784 43.9817 242.073 39.366C235.908 38.3391 229.159 37.251 221.871 35.645C197.352 30.2418 181.812 38.6761 167.22 46.655C159.018 51.1396 151.103 55.4671 142.037 57.0843C109.465 62.8942 99.8611 71.4058 84.8065 91.6287C62.8163 121.168 116.88 163.489 156.925 172.314C181 177.619 194.028 165.689 206.116 154.619C210.044 151.023 213.872 147.518 217.947 144.724C218.767 144.161 219.64 143.567 220.56 142.941Z" fill="#FFF1C2"/>
</g>
</g>
</svg>
