<svg width="13" height="18" viewBox="0 0 13 18" fill="none" xmlns="http://www.w3.org/2000/svg">
<path d="M9.49332 16.1583C11.477 13.2803 11.2437 12.1425 11.7688 10.5362C9.14336 9.73302 7.56811 12.3433 6.51794 13.1464C5.46777 13.9496 2.73566 15.1367 1.33536 12.1249C0.985381 14.7352 2.3755 15.7567 4.06744 16.9614L6.51794 17.3076L9.49332 16.1583Z" fill="#FCCC1F"/>
<path fill-rule="evenodd" clip-rule="evenodd" d="M6.05769 18C2.71142 18 0 14.7756 0 10.8C0 6.8244 6.05769 0 6.05769 0C6.05769 0 12.1154 6.8232 12.1154 10.8C12.1154 14.7768 9.40275 18 6.05769 18ZM6.05769 1.8C6.05769 1.8 1.21154 7.4868 1.21154 10.8C1.21154 14.1144 3.3814 16.8 6.05769 16.8C8.73398 16.8 10.9038 14.1132 10.9038 10.8C10.9038 7.4856 6.05769 1.8 6.05769 1.8Z" fill="#FCCC1F"/>
</svg>
