<svg width="15" height="8" viewBox="0 0 15 8" fill="none" xmlns="http://www.w3.org/2000/svg">
<path d="M3.125 0H0.625C0.28 0 0 0.297333 0 0.666666C0 1.03467 0.28 1.33333 0.625 1.33333H1.25C1.25 5.01467 4.0475 8 7.5 8C10.9512 8 13.75 5.01467 13.75 1.33333H14.375C14.7188 1.33333 15 1.03467 15 0.666666C15 0.298666 14.7188 0 14.375 0H11.875C11.53 0 11.25 0.298666 11.25 0.666666C11.25 1.03467 11.53 1.33333 11.875 1.33333H12.5C12.5 4.27733 10.2612 6.66667 7.5 6.66667C4.73875 6.66667 2.5 4.27733 2.5 1.33333H3.125C3.46875 1.33333 3.75 1.03467 3.75 0.666666C3.75 0.298666 3.46875 0 3.125 0Z" fill="#F3F4F1"/>
</svg>
