<svg width="73" height="73" viewBox="0 0 73 73" fill="none" xmlns="http://www.w3.org/2000/svg">
<g filter="url(#filter0_d_1_324)">
<path d="M15.6707 19.7662C16.8613 15.3015 20.3364 11.8068 24.7943 10.591V10.591C32.4581 8.50086 40.5419 8.50086 48.2057 10.591V10.591C52.6636 11.8068 56.1387 15.3015 57.3293 19.7662L57.4861 20.3543C59.5002 27.9072 59.4543 35.8616 57.3531 43.3907V43.3907C56.1456 47.7176 52.6953 51.1065 48.3614 52.2885V52.2885C40.6585 54.3893 32.3415 54.3893 24.6386 52.2885V52.2885C20.3047 51.1065 16.8544 47.7176 15.6469 43.3907V43.3907C13.5457 35.8616 13.4998 27.9072 15.5139 20.3543L15.6707 19.7662Z" fill="#203901" fill-opacity="0.2"/>
<path d="M56.3605 20.0246L56.5173 20.6127C58.4853 27.9924 58.4404 35.7647 56.3874 43.1212C55.2762 47.1032 52.096 50.2308 48.0976 51.3212C40.5674 53.3749 32.4326 53.3749 24.9024 51.3212C20.904 50.2308 17.7238 47.1032 16.6126 43.1212C14.5596 35.7647 14.5147 27.9924 16.4827 20.6127L16.6395 20.0246C17.7381 15.9048 20.9446 12.6801 25.0581 11.5583C32.5492 9.51524 40.4508 9.51524 47.9419 11.5583C52.0554 12.6801 55.2619 15.9048 56.3605 20.0246Z" stroke="white" stroke-width="2"/>
</g>
<path d="M43.5081 31.6509C44.0118 32.0523 44.0118 32.8178 43.5081 33.2191L33.5969 41.117C32.9401 41.6404 31.9694 41.1727 31.9694 40.3329L31.9694 24.5372C31.9694 23.6974 32.9401 23.2297 33.5969 23.7531L43.5081 31.6509Z" fill="white"/>
<defs>
<filter id="filter0_d_1_324" x="0" y="0" width="73" height="72.9135" filterUnits="userSpaceOnUse" color-interpolation-filters="sRGB">
<feFlood flood-opacity="0" result="BackgroundImageFix"/>
<feColorMatrix in="SourceAlpha" type="matrix" values="0 0 0 0 0 0 0 0 0 0 0 0 0 0 0 0 0 0 127 0" result="hardAlpha"/>
<feOffset dy="5"/>
<feGaussianBlur stdDeviation="7"/>
<feColorMatrix type="matrix" values="0 0 0 0 0.12549 0 0 0 0 0.223529 0 0 0 0 0.00392157 0 0 0 0.14 0"/>
<feBlend mode="multiply" in2="BackgroundImageFix" result="effect1_dropShadow_1_324"/>
<feBlend mode="normal" in="SourceGraphic" in2="effect1_dropShadow_1_324" result="shape"/>
</filter>
</defs>
</svg>
