<svg width="21" height="19" viewBox="0 0 21 19" fill="none" xmlns="http://www.w3.org/2000/svg">
<path d="M19.5569 2.67948L19.1205 3.11586L19.5569 2.67948ZM18.0971 1.21963L18.5334 0.783259L18.0971 1.21963ZM4.13404 1.23425H16.6425V3.67836e-07H4.13404V1.23425ZM1.65598 3.11586L3.11583 1.65601L2.24308 0.783259L0.783234 2.24311L1.65598 3.11586ZM1.23423 16.3258V4.13406H-2.51354e-05V16.3258H1.23423ZM18.1023 17.7657H2.67419V19H18.1023V17.7657ZM19.5423 4.13406V16.3258H20.7765V4.13406H19.5423ZM17.6607 1.65601L19.1205 3.11586L19.9933 2.24311L18.5334 0.783259L17.6607 1.65601ZM20.7765 4.13406C20.7765 3.42482 20.4948 2.74462 19.9933 2.24311L19.1205 3.11586C19.3906 3.3859 19.5423 3.75216 19.5423 4.13406H20.7765ZM18.1023 19C19.5793 19 20.7765 17.8027 20.7765 16.3258H19.5423C19.5423 17.1211 18.8976 17.7657 18.1023 17.7657V19ZM-2.51354e-05 16.3258C-2.51354e-05 17.8027 1.19726 19 2.67419 19V17.7657C1.87892 17.7657 1.23423 17.1211 1.23423 16.3258H-2.51354e-05ZM0.783234 2.24311C0.281721 2.74462 -2.51354e-05 3.42482 -2.51354e-05 4.13406H1.23423C1.23423 3.75216 1.38594 3.3859 1.65598 3.11586L0.783234 2.24311ZM16.6425 1.23425C17.0244 1.23425 17.3906 1.38596 17.6607 1.65601L18.5334 0.783259C18.0319 0.281747 17.3517 3.67836e-07 16.6425 3.67836e-07V1.23425ZM4.13404 3.67836e-07C3.42479 3.67836e-07 2.74459 0.281746 2.24308 0.783259L3.11583 1.65601C3.38588 1.38596 3.75213 1.23425 4.13404 1.23425V3.67836e-07Z" fill="#F3F4F1"/>
</svg>
