<svg width="22" height="22" viewBox="0 0 22 22" fill="none" xmlns="http://www.w3.org/2000/svg">
    <path d="M16 11L6 11" stroke="#002140" stroke-width="1.2" stroke-linecap="round"/>
    <path d="M19.25 21.9H13.85V20.7251H19.25C20.0643 20.7251 20.725 20.0643 20.725 19.2488V13.8505H21.9V19.2488C21.9 20.7142 20.7128 21.9 19.25 21.9ZM20.725 2.75252C20.725 1.9357 20.0643 1.27492 19.25 1.27492H13.85V0.1H19.25C20.7127 0.1 21.9 1.28703 21.9 2.75252V8.15084H20.725V2.75252ZM0.1 19.2488V13.8505H1.275V19.2488C1.275 20.0643 1.93428 20.7251 2.75 20.7251H8.15V21.9H2.75C1.28722 21.9 0.1 20.7142 0.1 19.2488ZM1.275 2.75252V8.15084H0.1V2.75252C0.1 1.28703 1.28728 0.1 2.75 0.1H8.15V1.27492H2.75C1.93421 1.27492 1.275 1.93577 1.275 2.75252Z" fill="#002140" stroke="white" stroke-width="0.2"/>
</svg>
