<svg width="56" height="56" viewBox="0 0 56 56" fill="none" xmlns="http://www.w3.org/2000/svg">
    <path d="M3.92516 13.7807C5.20972 8.96355 8.95903 5.19299 13.7688 3.88124L15.3704 3.44445C23.6391 1.18933 32.3609 1.18933 40.6296 3.44445L42.2312 3.88124C47.041 5.19299 50.7903 8.96355 52.0748 13.7807L52.6253 15.845C54.8347 24.1302 54.7844 32.856 52.4795 41.1152L52.1357 42.3471C50.8111 47.0935 47.0887 50.794 42.3346 52.0906L40.6296 52.5556C32.3609 54.8107 23.6391 54.8107 15.3704 52.5556L13.6654 52.0906C8.91126 50.794 5.18887 47.0935 3.86429 42.3471L3.52051 41.1152C1.21563 32.856 1.16527 24.1302 3.37466 15.845L3.92516 13.7807Z" fill="#0D986A"/>
    <circle opacity="0.6" cx="16" cy="25" r="4" fill="white"/>
    <circle opacity="0.6" cx="40.7249" cy="25" r="4" fill="white"/>
    <path d="M16 26C18.0833 43.3333 38.9167 43.3333 41 26" stroke="white" stroke-width="1.5"/>
</svg>
